<?xml version="1.0" encoding="utf-8"?>
<!-- Generator: Adobe Illustrator 16.0.0, SVG Export Plug-In . SVG Version: 6.00 Build 0)  -->
<!DOCTYPE svg PUBLIC "-//W3C//DTD SVG 1.1//EN" "http://www.w3.org/Graphics/SVG/1.1/DTD/svg11.dtd">
<svg version="1.1" id="Layer_1" xmlns="http://www.w3.org/2000/svg" xmlns:xlink="http://www.w3.org/1999/xlink" x="0px" y="0px"
	 width="425px" height="10px" viewBox="0 0 425 10" enable-background="new 0 0 425 10" xml:space="preserve">
<g>
	<path fill="#FFFFFF" d="M6.668,9.494H0.95V1.822H1.85v6.772h4.818V9.494z"/>
	<path fill="#FFFFFF" d="M22.308,9.494h-1.003l-1.248-2.629h-3.683l-1.207,2.629h-1.003l3.652-7.672h0.9L22.308,9.494z
		 M18.267,2.917l-1.442,3.048h2.833L18.267,2.917z"/>
	<path fill="#FFFFFF" d="M37.271,9.494h-0.817l-1.647-5.934h-0.021l-1.545,5.934h-0.818l-2.619-7.672h0.9l2.118,6.087h0.021
		l1.504-6.087h0.859l1.646,6.087h0.021l1.975-6.087h0.9L37.271,9.494z"/>
	<path fill="#FFFFFF" d="M55.194,9.494h-1.033l-1.77-3.191h-3.038v3.191h-0.901V1.822h3.827c1.155,0,3.1,0.215,3.1,2.199
		c0,1.657-1.064,2.189-1.965,2.281L55.194,9.494z M52.646,5.402c1.014,0,1.831-0.123,1.831-1.371c0-0.951-0.838-1.309-1.667-1.309
		h-3.457v2.68H52.646z"/>
	<path fill="#FFFFFF" d="M71.305,9.494h-6.526V1.822h6.302v0.9h-5.402v2.342h2.845v0.9h-2.845v2.63h5.627V9.494z"/>
	<path fill="#FFFFFF" d="M87.559,9.494h-0.9l-4.972-6.25h-0.021v6.25h-0.9V1.822h0.9l4.972,6.333h0.021V1.822h0.9V9.494z"/>
	<path fill="#FFFFFF" d="M105.04,8.134c-0.439,0.409-1.433,1.524-3.683,1.524c-2.076,0-4.256-1.351-4.256-4s2.18-4,4.123-4
		c2.117,0,3.305,1.136,3.703,1.524l-0.645,0.624c-0.419-0.357-1.483-1.248-3.038-1.248c-1.964,0-3.243,1.504-3.243,3.079
		c0,1.576,1.279,3.12,3.396,3.12c1.79,0,2.67-0.962,3.028-1.31L105.04,8.134z"/>
	<path fill="#FFFFFF" d="M121.039,9.494h-6.527V1.822h6.302v0.9h-5.401v2.342h2.845v0.9h-2.845v2.63h5.627V9.494z"/>
	<path fill="#FFFFFF" d="M148.234,9.494h-1.003l-1.248-2.629h-3.683l-1.207,2.629h-1.003l3.652-7.672h0.9L148.234,9.494z
		 M144.193,2.917l-1.442,3.048h2.834L144.193,2.917z"/>
	<path fill="#FFFFFF" d="M163.936,9.494h-0.9l-4.972-6.25h-0.021v6.25h-0.9V1.822h0.9l4.972,6.333h0.021V1.822h0.9V9.494z"/>
	<path fill="#FFFFFF" d="M177.816,1.822c2.619,0,3.539,2.465,3.539,3.836s-0.735,3.836-3.539,3.836h-3.765V1.822H177.816z
		 M177.816,8.595c1.749,0,2.64-1.709,2.64-2.937c0-1.248-0.891-2.936-2.64-2.936h-2.864v5.872H177.816z"/>
	<path fill="#FFFFFF" d="M207.457,9.494h-5.718V1.822h0.899v6.772h4.818V9.494z"/>
	<path fill="#FFFFFF" d="M219.884,1.658c2.353,0,4.123,1.842,4.123,4c0,2.159-1.771,4-4.123,4c-2.352,0-4.123-1.841-4.123-4
		C215.761,3.5,217.521,1.658,219.884,1.658z M219.884,8.758c1.842,0,3.223-1.401,3.223-3.1s-1.381-3.1-3.223-3.1
		c-1.841,0-3.222,1.401-3.222,3.1S218.043,8.758,219.884,8.758z"/>
	<path fill="#FFFFFF" d="M240.507,9.494h-0.9l-4.972-6.25h-0.021v6.25h-0.899V1.822h0.899l4.972,6.333h0.021V1.822h0.9V9.494z"/>
	<path fill="#FFFFFF" d="M257.61,7.356c0,1.401-1.493,2.302-3.468,2.302c-2.118,0-4.173-1.279-4.173-4.051
		c0-2.057,1.677-3.949,4.204-3.949c1.861,0,2.822,0.982,3.283,1.422l-0.613,0.645c-0.48-0.42-1.36-1.166-2.63-1.166
		c-2.035,0-3.345,1.483-3.345,3.049c0,1.841,1.3,3.15,3.314,3.15c1.678,0,2.527-0.757,2.527-1.462V6.221h-2.639v-0.9h3.538V7.356z"
		/>
	<path fill="#FFFFFF" d="M284.919,9.494h-1.002l-1.249-2.629h-3.682l-1.208,2.629h-1.002l3.652-7.672h0.899L284.919,9.494z
		 M280.878,2.917l-1.442,3.048h2.834L280.878,2.917z"/>
	<path fill="#FFFFFF" d="M300.405,9.494h-1.033l-1.77-3.191h-3.038v3.191h-0.901V1.822h3.827c1.156,0,3.1,0.215,3.1,2.199
		c0,1.657-1.063,2.189-1.965,2.281L300.405,9.494z M297.857,5.402c1.013,0,1.831-0.123,1.831-1.371c0-0.951-0.838-1.309-1.667-1.309
		h-3.457v2.68H297.857z"/>
	<path fill="#FFFFFF" d="M317.344,8.134c-0.439,0.409-1.431,1.524-3.682,1.524c-2.077,0-4.257-1.351-4.257-4s2.18-4,4.124-4
		c2.117,0,3.304,1.136,3.703,1.524l-0.645,0.624c-0.419-0.357-1.483-1.248-3.038-1.248c-1.965,0-3.242,1.504-3.242,3.079
		c0,1.576,1.277,3.12,3.396,3.12c1.79,0,2.67-0.962,3.027-1.31L317.344,8.134z"/>
	<path fill="#FFFFFF" d="M333.661,9.494h-0.901v-3.56h-4.931v3.56h-0.9V1.822h0.9v3.213h4.931V1.822h0.901V9.494z"/>
	<path fill="#FFFFFF" d="M344.83,9.494h-0.899V1.822h0.899V9.494z"/>
	<path fill="#FFFFFF" d="M357.868,9.494h-0.899V2.723h-2.803v-0.9h6.506v0.9h-2.804V9.494z"/>
	<path fill="#FFFFFF" d="M376.444,9.494h-6.527V1.822h6.303v0.9h-5.402v2.342h2.844v0.9h-2.844v2.63h5.627V9.494z"/>
	<path fill="#FFFFFF" d="M393.159,8.134c-0.44,0.409-1.433,1.524-3.684,1.524c-2.076,0-4.255-1.351-4.255-4s2.179-4,4.122-4
		c2.117,0,3.305,1.136,3.703,1.524l-0.645,0.624c-0.42-0.357-1.483-1.248-3.039-1.248c-1.963,0-3.242,1.504-3.242,3.079
		c0,1.576,1.279,3.12,3.396,3.12c1.79,0,2.671-0.962,3.028-1.31L393.159,8.134z"/>
	<path fill="#FFFFFF" d="M405.516,9.494h-0.9V2.723h-2.803v-0.9h6.506v0.9h-2.803V9.494z"/>
	<path fill="#FFFFFF" d="M421.165,4.994c1.432,0,2.885,0.521,2.885,2.22c0,1.667-1.779,2.444-3.663,2.444
		c-2.332,0-3.386-1.166-3.836-1.647l0.645-0.634c0.471,0.419,1.238,1.381,3.223,1.381c1.729,0,2.731-0.654,2.731-1.544
		c0-0.962-0.972-1.32-1.739-1.32h-1.617c-1.483,0-2.68-0.491-2.68-1.923c0-1.064,0.963-2.312,3.314-2.312
		c1.761,0,2.824,0.839,3.213,1.125l-0.562,0.707c-0.553-0.369-1.29-0.932-2.671-0.932c-1.729,0-2.394,0.809-2.394,1.412
		c0,1.023,1.3,1.023,2.22,1.023H421.165z"/>
</g>
</svg>
