<?xml version="1.0" encoding="utf-8"?>
<!-- Generator: Adobe Illustrator 16.0.0, SVG Export Plug-In . SVG Version: 6.00 Build 0)  -->
<!DOCTYPE svg PUBLIC "-//W3C//DTD SVG 1.1//EN" "http://www.w3.org/Graphics/SVG/1.1/DTD/svg11.dtd">
<svg version="1.1" id="Layer_1" xmlns="http://www.w3.org/2000/svg" xmlns:xlink="http://www.w3.org/1999/xlink" x="0px" y="0px"
	 width="225px" height="25px" viewBox="0 0 225 25" enable-background="new 0 0 225 25" xml:space="preserve">
<g>
	<g>
		<path fill="#FFFFFF" d="M28.015,8.737h-5.718V1.065h0.899v6.772h4.818V8.737z"/>
		<path fill="#FFFFFF" d="M43.655,8.737h-1.003l-1.248-2.629h-3.683l-1.207,2.629h-1.003l3.652-7.672h0.9L43.655,8.737z
			 M39.614,2.16l-1.442,3.048h2.833L39.614,2.16z"/>
		<path fill="#FFFFFF" d="M58.619,8.737h-0.817l-1.647-5.934h-0.021l-1.545,5.934H53.77l-2.619-7.672h0.9l2.118,6.087h0.021
			l1.504-6.087h0.859L58.2,7.152h0.021l1.975-6.087h0.9L58.619,8.737z"/>
		<path fill="#FFFFFF" d="M76.542,8.737h-1.033l-1.77-3.191h-3.038v3.191h-0.901V1.065h3.827c1.155,0,3.1,0.215,3.1,2.199
			c0,1.657-1.064,2.189-1.965,2.281L76.542,8.737z M73.994,4.646c1.014,0,1.831-0.123,1.831-1.371c0-0.951-0.838-1.309-1.667-1.309
			h-3.457v2.68H73.994z"/>
		<path fill="#FFFFFF" d="M92.652,8.737h-6.526V1.065h6.302v0.9h-5.402v2.342h2.845v0.9h-2.845v2.63h5.627V8.737z"/>
		<path fill="#FFFFFF" d="M108.906,8.737h-0.9l-4.972-6.25h-0.021v6.25h-0.9V1.065h0.9l4.972,6.333h0.021V1.065h0.9V8.737z"/>
		<path fill="#FFFFFF" d="M126.387,7.377c-0.439,0.409-1.433,1.524-3.683,1.524c-2.076,0-4.256-1.351-4.256-4s2.18-4,4.123-4
			c2.117,0,3.305,1.136,3.703,1.524L125.63,3.05c-0.419-0.357-1.483-1.248-3.038-1.248c-1.964,0-3.243,1.504-3.243,3.079
			c0,1.576,1.279,3.12,3.396,3.12c1.79,0,2.67-0.962,3.028-1.31L126.387,7.377z"/>
		<path fill="#FFFFFF" d="M142.386,8.737h-6.527V1.065h6.302v0.9h-5.401v2.342h2.845v0.9h-2.845v2.63h5.627V8.737z"/>
		<path fill="#FFFFFF" d="M169.582,8.737h-1.003l-1.248-2.629h-3.683l-1.207,2.629h-1.003l3.652-7.672h0.9L169.582,8.737z
			 M165.541,2.16l-1.442,3.048h2.834L165.541,2.16z"/>
		<path fill="#FFFFFF" d="M185.283,8.737h-0.9l-4.972-6.25h-0.021v6.25h-0.9V1.065h0.9l4.972,6.333h0.021V1.065h0.9V8.737z"/>
		<path fill="#FFFFFF" d="M199.164,1.065c2.619,0,3.539,2.465,3.539,3.836s-0.735,3.836-3.539,3.836h-3.765V1.065H199.164z
			 M199.164,7.838c1.749,0,2.64-1.709,2.64-2.937c0-1.248-0.891-2.936-2.64-2.936h-2.864v5.872H199.164z"/>
	</g>
	<g>
		<path fill="#FFFFFF" d="M7.062,24.342H1.345V16.67h0.899v6.772h4.818V24.342z"/>
		<path fill="#FFFFFF" d="M19.489,16.506c2.353,0,4.123,1.842,4.123,4c0,2.159-1.771,4-4.123,4c-2.352,0-4.123-1.841-4.123-4
			C15.366,18.348,17.126,16.506,19.489,16.506z M19.489,23.606c1.842,0,3.223-1.401,3.223-3.1s-1.381-3.1-3.223-3.1
			c-1.841,0-3.222,1.401-3.222,3.1S17.648,23.606,19.489,23.606z"/>
		<path fill="#FFFFFF" d="M40.112,24.342h-0.9l-4.972-6.25H34.22v6.25H33.32V16.67h0.899l4.972,6.333h0.021V16.67h0.9V24.342z"/>
		<path fill="#FFFFFF" d="M57.216,22.205c0,1.401-1.493,2.302-3.468,2.302c-2.118,0-4.173-1.279-4.173-4.051
			c0-2.057,1.677-3.949,4.204-3.949c1.861,0,2.822,0.982,3.283,1.422l-0.613,0.645c-0.48-0.42-1.36-1.166-2.63-1.166
			c-2.035,0-3.345,1.483-3.345,3.049c0,1.841,1.3,3.15,3.314,3.15c1.678,0,2.527-0.757,2.527-1.462v-1.075h-2.639v-0.9h3.538V22.205
			z"/>
		<path fill="#FFFFFF" d="M84.524,24.342h-1.002l-1.249-2.629h-3.682l-1.208,2.629h-1.002l3.652-7.672h0.899L84.524,24.342z
			 M80.483,17.765l-1.442,3.048h2.834L80.483,17.765z"/>
		<path fill="#FFFFFF" d="M100.011,24.342h-1.033l-1.77-3.191H94.17v3.191h-0.901V16.67h3.827c1.156,0,3.1,0.215,3.1,2.199
			c0,1.657-1.063,2.189-1.965,2.281L100.011,24.342z M97.463,20.25c1.013,0,1.831-0.123,1.831-1.371
			c0-0.951-0.838-1.309-1.667-1.309H94.17v2.68H97.463z"/>
		<path fill="#FFFFFF" d="M116.949,22.982c-0.439,0.409-1.431,1.524-3.682,1.524c-2.077,0-4.257-1.351-4.257-4s2.18-4,4.124-4
			c2.117,0,3.304,1.136,3.703,1.524l-0.645,0.624c-0.419-0.357-1.483-1.248-3.038-1.248c-1.965,0-3.242,1.504-3.242,3.079
			c0,1.576,1.277,3.12,3.396,3.12c1.79,0,2.67-0.962,3.027-1.31L116.949,22.982z"/>
		<path fill="#FFFFFF" d="M133.267,24.342h-0.901v-3.56h-4.931v3.56h-0.9V16.67h0.9v3.213h4.931V16.67h0.901V24.342z"/>
		<path fill="#FFFFFF" d="M144.436,24.342h-0.899V16.67h0.899V24.342z"/>
		<path fill="#FFFFFF" d="M157.474,24.342h-0.899v-6.771h-2.803v-0.9h6.506v0.9h-2.804V24.342z"/>
		<path fill="#FFFFFF" d="M176.05,24.342h-6.527V16.67h6.303v0.9h-5.402v2.342h2.844v0.9h-2.844v2.63h5.627V24.342z"/>
		<path fill="#FFFFFF" d="M192.765,22.982c-0.44,0.409-1.433,1.524-3.684,1.524c-2.076,0-4.255-1.351-4.255-4s2.179-4,4.122-4
			c2.117,0,3.305,1.136,3.703,1.524l-0.645,0.624c-0.42-0.357-1.483-1.248-3.039-1.248c-1.963,0-3.242,1.504-3.242,3.079
			c0,1.576,1.279,3.12,3.396,3.12c1.79,0,2.671-0.962,3.028-1.31L192.765,22.982z"/>
		<path fill="#FFFFFF" d="M205.121,24.342h-0.9v-6.771h-2.803v-0.9h6.506v0.9h-2.803V24.342z"/>
		<path fill="#FFFFFF" d="M220.771,19.842c1.432,0,2.885,0.521,2.885,2.22c0,1.667-1.779,2.444-3.663,2.444
			c-2.332,0-3.386-1.166-3.836-1.647l0.645-0.634c0.471,0.419,1.238,1.381,3.223,1.381c1.729,0,2.731-0.654,2.731-1.544
			c0-0.962-0.972-1.32-1.739-1.32h-1.617c-1.483,0-2.68-0.491-2.68-1.923c0-1.064,0.963-2.312,3.314-2.312
			c1.761,0,2.824,0.839,3.213,1.125l-0.562,0.707c-0.553-0.369-1.29-0.932-2.671-0.932c-1.729,0-2.394,0.809-2.394,1.412
			c0,1.023,1.3,1.023,2.22,1.023H220.771z"/>
	</g>
</g>
</svg>
