<?xml version="1.0" encoding="utf-8"?>
<!-- Generator: Adobe Illustrator 16.0.0, SVG Export Plug-In . SVG Version: 6.00 Build 0)  -->
<!DOCTYPE svg PUBLIC "-//W3C//DTD SVG 1.1//EN" "http://www.w3.org/Graphics/SVG/1.1/DTD/svg11.dtd">
<svg version="1.1" id="Layer_1" xmlns="http://www.w3.org/2000/svg" xmlns:xlink="http://www.w3.org/1999/xlink" x="0px" y="0px"
	 width="60px" height="20px" viewBox="0 0 60 20" enable-background="new 0 0 60 20" xml:space="preserve">
<path fill="#2AA9E0" d="M38.098,4.978c-0.596,0.264-1.236,0.442-1.909,0.523c0.687-0.412,1.213-1.062,1.461-1.839
	c-0.643,0.382-1.354,0.657-2.109,0.807c-0.606-0.646-1.47-1.049-2.426-1.049c-1.835,0-3.321,1.486-3.321,3.322
	c0,0.26,0.028,0.514,0.086,0.757c-2.762-0.139-5.211-1.461-6.85-3.472c-0.285,0.49-0.449,1.062-0.449,1.671
	c0,1.152,0.586,2.169,1.479,2.765c-0.545-0.017-1.058-0.166-1.506-0.415c0,0.014,0,0.028,0,0.042c0,1.61,1.145,2.952,2.666,3.257
	c-0.279,0.076-0.572,0.117-0.877,0.117c-0.213,0-0.422-0.021-0.625-0.06c0.424,1.32,1.65,2.281,3.104,2.307
	c-1.138,0.893-2.569,1.424-4.127,1.424c-0.268,0-0.532-0.017-0.792-0.047c1.47,0.942,3.217,1.493,5.093,1.492
	c6.112,0,9.453-5.062,9.453-9.453c0-0.145-0.002-0.288-0.01-0.43C37.088,6.229,37.651,5.643,38.098,4.978z"/>
<path fill-rule="evenodd" clip-rule="evenodd" fill="#00ADEE" d="M56.436,6.486c0.097-0.543,0.095-1.103-0.241-1.525
	c-0.468-0.592-1.465-0.614-2.148-0.51c-0.556,0.085-2.435,0.914-3.073,2.899c1.132-0.086,1.726,0.082,1.616,1.329
	c-0.045,0.522-0.309,1.094-0.603,1.642c-0.34,0.632-0.978,1.872-1.812,0.979c-0.753-0.805-0.696-2.345-0.869-3.37
	c-0.095-0.575-0.197-1.292-0.385-1.884c-0.163-0.508-0.535-1.122-0.991-1.254c-0.489-0.145-1.093,0.081-1.448,0.29
	c-1.131,0.665-1.993,1.61-2.971,2.39v0.073c0.193,0.186,0.246,0.489,0.531,0.53c0.674,0.099,1.315-0.626,1.763,0.129
	c0.272,0.462,0.357,0.969,0.532,1.466c0.232,0.663,0.413,1.386,0.603,2.148c0.323,1.292,0.72,3.222,1.837,3.695
	c0.569,0.241,1.426-0.082,1.858-0.34c1.175-0.694,2.09-1.702,2.873-2.728C55.298,10.02,56.286,7.271,56.436,6.486z"/>
<path fill="#3C5A98" d="M8.152,17.77v-7.292H6.224V7.853h1.928c0,0,0-1.075,0-2.242c0-1.762,1.139-3.38,3.762-3.38
	c1.062,0,1.85,0.102,1.85,0.102l-0.062,2.451c0,0-0.803-0.007-1.676-0.007c-0.947,0-1.098,0.436-1.098,1.16c0,0.572,0-1.219,0,1.917
	h2.848l-0.123,2.625h-2.725v7.292H8.152z"/>
</svg>
